<svg xmlns="http://www.w3.org/2000/svg" xml:space="preserve" overflow="visible" height="311.64" viewBox="0 0 541.006 623.275" width="270.505" version="1.1" enable-background="new 0 0 541.006 623.275">
<title>Rennweger SV 1901</title>
<path clip-rule="evenodd" d="M270.5,623.28c-130.73-65.62-260.79-353.2-270.5-566.9,73.934-41.271,177.75-56.376,270.5-56.376,92.756,0,196.57,15.105,270.5,56.376-9.71,213.7-139.77,501.28-270.5,566.9z" fill-rule="evenodd"/>
<path d="M221.25,577.86c16.297,15.508,32.802,27.971,49.241,36.737,91.054-48.481,181.61-206.82,229.26-369.92,9.414-32.229,17.136-64.604,22.834-96.317,5.385-29.964,8.969-59.371,10.479-87.54-29.332-15.734-63.3-27.443-99.324-35.805-7.325-1.7-14.791-3.272-22.369-4.719-46.342-8.85-94.978-12.591-140.85-12.592v0.03h-0.015c-66.112,0-137.82,7.727-199.96,27.253-12.01,3.775-23.672,7.995-34.87,12.689-9.65,4.044-18.915,8.42-27.719,13.14,8.123,151.63,76.332,339.32,161.75,457.06,16.68,22.99,33.98,43.25,51.55,59.98z" fill="#FFF"/>
<path d="M270.51,570.55c-86.623-62.614-150.23-207.88-178.54-289.61-9.86-28.474-32.181-112.41-41.94-161.43-3.138-15.761-10.736-33.12,6.373-39.915,66.466-26.402,142.32-34.403,214.1-34.403,71.791,0,147.64,8.001,214.1,34.403,17.108,6.795,9.511,24.154,6.373,39.915-9.76,49.02-32.08,132.96-41.94,161.43-28.29,81.73-91.89,226.99-178.52,289.61zm-38.61-3.34l0.005,0.005-0.022,0.021c2.426,2.305,4.506,4.236,6.231,5.78,1.621,1.452,3.794,3.321,6.523,5.61,8.697,7.297,17.338,13.574,25.867,18.722,9.399-5.648,18.86-12.596,28.323-20.703,12.018-10.297,23.954-22.416,35.692-36.075,61.628-71.716,117.08-184.59,150.82-300.07v-0.059l0.004-0.014,0.016,0.004c1.184-4.055,2.444-8.491,3.779-13.311,1.285-4.643,2.483-9.083,3.59-13.311,5.997-22.914,11.064-45.692,15.081-68.031l-0.047-0.008,0.009-0.048,0.059-0.059c0.601-3.341,1.299-7.447,2.095-12.313,0.523-3.2,1.15-7.28,1.879-12.236,2.588-17.594,4.494-34.794,5.664-51.448-1.184-0.589-2.338-1.154-3.466-1.692-3.714-1.776-7.89-3.65-12.499-5.617-22-9.383-46.02-16.868-71.113-22.692h-0.059l-0.013-0.003,0.003-0.012c-2.4-0.557-2.414-0.569-2.97-0.694-2.68-0.605,1.686,0.395-2.982-0.632h-0.059c-5.784-1.272-11.037-2.358-15.761-3.26l0.001-0.005h-0.031c-6.817-1.302-13.183-2.418-19.113-3.36-6.61-1.049-13.046-1.976-19.299-2.783-29.234-3.772-58.813-5.699-87.489-6.119h-12.132v-0.059c-32.442,0-66.256,1.897-99.578,6.188-4.083,0.525-9.454,1.298-16.184,2.332-27.543,4.228-54.462,10.157-79.653,18.069l0.005,0.017-0.008,0.003h-0.059c-1.743,0.547-3.358,1.065-4.848,1.552-1.587,0.52-3.189,1.056-4.804,1.606-8.152,2.78-16.139,5.795-23.918,9.057v-0.008l-0.006,0.003c-3.223,1.351-3.2,1.317-3.854,1.601-0.433,0.188-1.698,0.752-3.807,1.699-3.483,1.563-6.891,3.165-10.22,4.805,1.236,17.578,3.298,35.796,6.12,54.472,3.326,22.02,7.683,44.392,12.956,66.831,27.224,115.87,78.883,234.86,139.25,318.08l0.003,0.003c3.169,4.368,5.448,7.47,6.806,9.259,1.561,2.058,3.87,5.013,6.931,8.866,11.84,14.906,23.878,28.271,35.988,39.795l0.3,0.23z"/>
<path d="M85.128,125.45h21.406v52.302h-12.207v-42.518h-9.195v-9.78zm70.862,35.38l-11.549,17.213h-14.197l11.917-16.404c-0.54,0.098-1.141,0.172-1.803,0.221s-1.287,0.074-1.876,0.074c-4.756,0-8.508-1.814-11.254-5.443s-4.12-7.552-4.12-11.77c0-4.904,1.263-8.889,3.789-11.954,2.526-3.064,5.076-5.173,7.65-6.326,2.574-1.152,5.333-1.729,8.275-1.729s5.799,0.637,8.57,1.913,4.867,2.881,6.29,4.818c1.422,1.937,2.354,3.408,2.795,4.414,0.441,1.005,0.772,1.802,0.993,2.391s0.405,1.288,0.552,2.097,0.27,1.594,0.368,2.354c0.098,0.76,0.146,1.484,0.146,2.17,0,0.637-0.036,1.275-0.11,1.912-0.073,0.638-0.208,1.472-0.405,2.501-0.245,0.882-0.441,1.544-0.588,1.986s-0.417,1.079-0.809,1.913l-1.692,3.09-2.94,4.57zm-5.96-17.28c0-1.913-0.65-3.445-1.949-4.598-1.3-1.152-2.783-1.729-4.45-1.729-1.913,0-3.654,0.65-5.223,1.949-1.569,1.3-2.354,2.955-2.354,4.965,0,0.638,0.16,1.582,0.479,2.832,0.319,1.251,1.091,2.317,2.317,3.2,1.128,0.932,2.452,1.398,3.972,1.398,1.913,0,3.592-0.637,5.039-1.913,1.447-1.275,2.17-3.016,2.17-5.223v-0.894l-0.01,0.004zm258.59,16.69v-17.287c0-2.157-0.54-3.776-1.618-4.854-1.079-1.226-2.648-1.839-4.708-1.839-2.011,0-3.531,0.613-4.562,1.839-0.98,1.373-1.471,3.04-1.471,5.002v17.14c0,2.011,0.49,3.654,1.471,4.929s2.501,1.912,4.562,1.912c1.814,0,3.188-0.441,4.119-1.324,0.932-0.882,1.533-1.716,1.802-2.5,0.28-0.78,0.41-1.79,0.41-3.02zm12.51-17.14v17.14c0,2.648-0.466,5.063-1.397,7.246-0.933,2.182-2.256,4.131-3.973,5.848-1.716,1.716-3.702,3.053-5.958,4.009s-4.757,1.435-7.503,1.435c-3.433,0-6.608-0.797-9.526-2.391s-5.198-3.825-6.841-6.694c-1.643-2.869-2.465-6.02-2.465-9.453v-17.14c0-2.648,0.479-5.112,1.436-7.393,0.956-2.28,2.341-4.266,4.155-5.958,1.814-1.691,3.887-3.003,6.216-3.935,2.33-0.932,4.745-1.398,7.246-1.398,1.373,0,3.028,0.172,4.965,0.515,1.938,0.343,4.083,1.41,6.437,3.2s4.144,3.984,5.37,6.583c1.21,2.6,1.82,5.39,1.82,8.38zm13.34-17.65h21.406v52.302h-12.211v-42.518h-9.195v-9.78h-0.01zm-240.42-37.616v225.89h24.919v-80.26c12.325-10.977,28.992-4.774,35.599,11.65,12.729-0.108,25.459-0.216,38.188-0.324-2.481-3.883-4.963-7.767-7.443-11.65-2.716-4.51-0.384-7.312,2.589-7.767,76.633-12.063,82.482-81.347,55.987-114.56-25.28-31.696-82.84-33.504-149.85-22.986zm24.92,93.856v-52.751c1.275-14.16,7.216-17.384,17.799-17.799,13.808-0.216,27.616-0.432,41.424-0.647,30.259,2.158,49.237,14.118,49.515,40.454,0.347,32.901-36.569,51.349-53.722,51.457h-42.073c-9-0.43-12.78-10.03-12.94-20.71zm10.21,75.19c43.516-6.255,85.791-4.755,126.42,7.039l-6.768,26.258c-43.381-11.641-83.491-12.813-119.65-1.352v-31.95zm-44.67,21.66v29.507c-0.293,19.355,14.64,22.514,60.639,27.883,24.002,0.902,48.005,1.805,72.008,2.707-3.971,9.475-7.94,18.949-11.911,28.425-29.868-3.068-59.736-6.137-89.604-9.204-43.337-5.527-55.383-26.057-46.021-56.849,4.04-8.19,8.39-15.19,14.88-22.47zm135.62,51.97c-9.295-12.904-18.589-25.807-27.883-38.711,13.085-2.188,26.169,0.023,39.252,8.663-3.79,10.02-7.58,20.04-11.37,30.05zm26.8-21.38h29.777l-40.877,81.753c-5.639,11.617-18.994,18.521-37.628,22.198l48.73-103.95zm-158.9,99.07l-8.392,28.154c69.712,18.857,116.89,20.59,145.62,10.104,33.032-12.057,47.097-48.387,32.164-77.172-6.101,22.102-14.568,37.851-25.464,48.126-8.338,7.864-29.247,11.647-55.621,10.791-33.95-1.1-58.18-7.33-88.31-20zm-17.87-54.41l22.469,36.275c11.144,13.828,25.22,22.084,43.583,22.198l-28.424-44.396c-12.54-1.61-25.09-6.67-37.63-14.07zm54.96,104.5c9.971,2.301,20.167,4.376,30.86,5.956l14.527,20.573,11.461-20.844c11.145,0.405,21.16-0.498,30.86-2.979l-40.34,75.25-47.37-77.96z"/>
</svg>
